<?xml version="1.0" encoding="iso-8859-1"?>
<!-- Generator: Adobe Illustrator 19.0.0, SVG Export Plug-In . SVG Version: 6.00 Build 0)  -->
<svg version="1.1" id="Layer_1" xmlns="http://www.w3.org/2000/svg" xmlns:xlink="http://www.w3.org/1999/xlink" x="0px" y="0px"
	 viewBox="0 0 504 504" style="enable-background:new 0 0 504 504;" xml:space="preserve">
<ellipse style="fill:#00233F;" cx="124" cy="252" rx="98.4" ry="97.6"/>
<ellipse style="fill:#84B7B6;" cx="124" cy="252" rx="79.2" ry="78.4"/>
<g>
	<path style="fill:#B3E2E2;" d="M163.2,184c-11.2-6.4-23.2-9.6-36.8-10.4l-81.6,81.6c0.8,12.8,4,25.6,10.4,36L163.2,184z"/>
	<path style="fill:#B3E2E2;" d="M198.4,224.8L96,325.6c4.8,1.6,8.8,3.2,13.6,4l92-91.2C201.6,233.6,200,228.8,198.4,224.8z"/>
	<path style="fill:#B3E2E2;" d="M131.2,330.4c37.6-3.2,68-33.6,71.2-71.2L131.2,330.4z"/>
</g>
<ellipse style="fill:#00233F;" cx="380" cy="252" rx="98.4" ry="97.6"/>
<ellipse style="fill:#84B7B6;" cx="380" cy="252" rx="79.2" ry="78.4"/>
<g>
	<path style="fill:#B3E2E2;" d="M419.2,184c-11.2-6.4-23.2-9.6-36.8-10.4l-81.6,81.6c0.8,12.8,4,25.6,10.4,36L419.2,184z"/>
	<path style="fill:#B3E2E2;" d="M454.4,224.8L352,325.6c4.8,1.6,8.8,3.2,13.6,4l92-91.2C457.6,233.6,456,228.8,454.4,224.8z"/>
	<path style="fill:#B3E2E2;" d="M387.2,330.4c37.6-3.2,68-33.6,71.2-71.2L387.2,330.4z"/>
</g>
<g>
	<path style="fill:#00233F;" d="M37.6,252c0,6.4-4.8,8-11.2,8H11.2C4.8,260,0,258.4,0,252l0,0c0-6.4,4.8-8,11.2-8h15.2
		C32.8,244,37.6,245.6,37.6,252L37.6,252z"/>
	<path style="fill:#00233F;" d="M504,252c0,6.4-4.8,8-11.2,8h-15.2c-6.4,0-11.2-1.6-11.2-8l0,0c0-6.4,4.8-8,11.2-8h15.2
		C498.4,244,504,245.6,504,252L504,252z"/>
	<path style="fill:#00233F;" d="M298.4,252c0,6.4-12,8-27.2,8h-38.4c-15.2,0-27.2-1.6-27.2-8l0,0c0-6.4,12-8,27.2-8h38.4
		C286.4,244,298.4,245.6,298.4,252L298.4,252z"/>
</g>
<g>
</g>
<g>
</g>
<g>
</g>
<g>
</g>
<g>
</g>
<g>
</g>
<g>
</g>
<g>
</g>
<g>
</g>
<g>
</g>
<g>
</g>
<g>
</g>
<g>
</g>
<g>
</g>
<g>
</g>
</svg>
