<?xml version="1.0" encoding="iso-8859-1"?>
<!-- Generator: Adobe Illustrator 19.0.0, SVG Export Plug-In . SVG Version: 6.00 Build 0)  -->
<svg version="1.1" id="Capa_1" xmlns="http://www.w3.org/2000/svg" xmlns:xlink="http://www.w3.org/1999/xlink" x="0px" y="0px"
	 viewBox="0 0 59.484 59.484" style="enable-background:new 0 0 59.484 59.484;" xml:space="preserve">
<g>
	<path style="fill:#F5EFCA;" d="M32.419,43.718c2.094-1.197,3.522-3.226,4.162-5.551c1.505-5.471,6.516-9.49,12.465-9.49l0,0
		c0.153,0,0.303,0.01,0.455,0.015c-0.022-1.604-0.061-7.036-0.129-7.625c-0.517-4.49-5.454-9.073-9.916-10.405
		c-2.294-0.685-4.783,0.107-6.411,1.824c-1.231,1.298-2.578,5.297-5.019,4.237c-1.12-0.486-1.882-1.69-2.465-2.721
		c-0.494-0.874-1.139-1.664-1.947-2.259c-2.353-1.73-3.365-1.562-5.716-0.236c-3.953,2.23-6.442,10.677-6.442,15.213v12.372
		c0,2.748,2.228,4.975,4.975,4.975h15.222L32.419,43.718z"/>
	<path style="fill:#3F5C6C;" d="M16.431,44.067h15.222l0.766-0.349c2.094-1.197,3.522-3.226,4.162-5.551
		c0.103-0.374,0.226-0.74,0.361-1.1H11.455v2.025C11.455,41.84,13.683,44.067,16.431,44.067z"/>
	<path style="fill:#F9EAB0;stroke:#F9EAB0;stroke-width:2;stroke-linecap:round;stroke-miterlimit:10;" d="M39.455,45.505
		L39.455,45.505c-4.519,1.695-6.472,2.563-11.298,2.563h-3.349l4.647-3l2.963-1.349c2.094-1.197,3.523-3.226,4.162-5.551
		c1.505-5.471,6.516-9.49,12.465-9.49h0c0.297,0,0.593,0.01,0.885,0.03c9.189,0.621,12.358,13.027,2.525,18.36l0,0
		c-4.604,1.25-7.489-1.231-10.242-1.791C41.291,45.089,40.337,45.174,39.455,45.505z"/>
	<path style="fill:#F9EAB0;stroke:#F9EAB0;stroke-width:2;stroke-linecap:round;stroke-miterlimit:10;" d="M26.455,47.067
		l4.584-2.75c0.117-0.07,0.067-0.25-0.069-0.25h-3.708H16.431c-2.748,0-4.975-2.227-4.975-4.975V28.785
		c-0.521-0.064-1.048-0.108-1.586-0.108c-0.297,0-0.593,0.01-0.885,0.03c-4.072,0.275-6.404,3.21-7.529,6.792
		c-1.961,6.245,2.667,12.568,9,12.568h0h14.353l0,0L26.455,47.067z"/>
	<path style="fill:none;stroke:#F3D55B;stroke-width:2;stroke-linecap:round;stroke-miterlimit:10;" d="M6.455,36.067
		c0,4.422,4.92,8,11,8"/>
	<path style="fill:none;stroke:#F3D55B;stroke-width:2;stroke-linecap:round;stroke-miterlimit:10;" d="M46.455,40.067
		c0.75,1.646,0.021,4.5-5,5"/>
</g>
<g>
</g>
<g>
</g>
<g>
</g>
<g>
</g>
<g>
</g>
<g>
</g>
<g>
</g>
<g>
</g>
<g>
</g>
<g>
</g>
<g>
</g>
<g>
</g>
<g>
</g>
<g>
</g>
<g>
</g>
</svg>
